<svg xmlns="http://www.w3.org/2000/svg" width="20" height="16.255" viewBox="0 0 20 16.255">
  <path id="Icon_simple-twitter" data-name="Icon simple-twitter" d="M19.961,5.3a8.333,8.333,0,0,1-2.354.646,4.132,4.132,0,0,0,1.8-2.269,8.469,8.469,0,0,1-2.606.987,4.1,4.1,0,0,0-7.092,2.8,4.2,4.2,0,0,0,.106.937,11.612,11.612,0,0,1-8.45-4.271A4.018,4.018,0,0,0,.812,6.194,4.1,4.1,0,0,0,2.635,9.607,4.087,4.087,0,0,1,.778,9.094v.051a4.1,4.1,0,0,0,3.288,4.022,4.138,4.138,0,0,1-1.843.071A4.114,4.114,0,0,0,6.06,16.085,8.223,8.223,0,0,1,.975,17.839,8.7,8.7,0,0,1,0,17.783a11.662,11.662,0,0,0,6.3,1.841A11.581,11.581,0,0,0,17.963,7.97c0-.174,0-.35-.012-.525A8.28,8.28,0,0,0,20,5.321L19.961,5.3Z" transform="translate(0 -3.369)" fill="#737373"/>
</svg>
