<svg xmlns="http://www.w3.org/2000/svg" width="548.343" height="374.875" viewBox="0 0 548.343 374.875">
  <g id="stamps" transform="matrix(0.809, 0.588, -0.588, 0.809, 27.126, -23.914)" style="mix-blend-mode: multiply;isolation: isolate">
    <g id="グループ_1" data-name="グループ 1">
      <path id="パス_1" data-name="パス 1" d="M155.38,11.98a5.5,5.5,0,0,0-.78-2.76,17.749,17.749,0,0,0-3.02-3.88c-2.65-2.21-4.54-1.49-5.9-.13-1.57,1.08-3.28,5.75-2.63,11.24,1.24,4.02,3.07,4.53,6.43,3.7a9.592,9.592,0,0,0,4.47-3.04,5.07,5.07,0,0,0,1.23-2.66,17.09,17.09,0,0,0,.2-2.48Z" fill="#bfbfbf"/>
      <circle id="楕円形_1" data-name="楕円形 1" cx="3.24" cy="3.24" r="3.24" transform="translate(158.08 9.51)" fill="#bfbfbf"/>
      <circle id="楕円形_2" data-name="楕円形 2" cx="3.24" cy="3.24" r="3.24" transform="translate(155.7 0)" fill="#bfbfbf"/>
      <circle id="楕円形_3" data-name="楕円形 3" cx="3.24" cy="3.24" r="3.24" transform="translate(154.83 19)" fill="#bfbfbf"/>
    </g>
    <g id="グループ_2" data-name="グループ 2">
      <path id="パス_2" data-name="パス 2" d="M97.5,37.52a5.584,5.584,0,0,0-.82-2.75,17.931,17.931,0,0,0-3.08-3.84c-2.68-2.17-4.56-1.43-5.9-.04-1.55,1.1-3.19,5.8-2.47,11.28,1.29,4,3.14,4.48,6.48,3.6a9.662,9.662,0,0,0,4.43-3.1A5.039,5.039,0,0,0,97.33,40a18.372,18.372,0,0,0,.16-2.48Z" fill="#bfbfbf"/>
      <circle id="楕円形_4" data-name="楕円形 4" cx="3.24" cy="3.24" r="3.24" transform="translate(100.2 34.97)" fill="#bfbfbf"/>
      <circle id="楕円形_5" data-name="楕円形 5" cx="3.24" cy="3.24" r="3.24" transform="translate(97.69 25.49)" fill="#bfbfbf"/>
      <circle id="楕円形_6" data-name="楕円形 6" cx="3.24" cy="3.24" r="3.24" transform="translate(97.09 44.5)" fill="#bfbfbf"/>
    </g>
    <g id="グループ_3" data-name="グループ 3">
      <path id="パス_3" data-name="パス 3" d="M251.64,11.98a5.5,5.5,0,0,0-.78-2.76,17.749,17.749,0,0,0-3.02-3.88c-2.65-2.21-4.54-1.49-5.9-.13-1.57,1.08-3.28,5.75-2.63,11.24,1.24,4.02,3.07,4.53,6.43,3.7a9.592,9.592,0,0,0,4.47-3.04,5.07,5.07,0,0,0,1.23-2.66,17.09,17.09,0,0,0,.2-2.48Z" fill="#bfbfbf"/>
      <circle id="楕円形_7" data-name="楕円形 7" cx="3.24" cy="3.24" r="3.24" transform="translate(254.33 9.51)" fill="#bfbfbf"/>
      <circle id="楕円形_8" data-name="楕円形 8" cx="3.24" cy="3.24" r="3.24" transform="translate(251.95 0)" fill="#bfbfbf"/>
      <circle id="楕円形_9" data-name="楕円形 9" cx="3.24" cy="3.24" r="3.24" transform="translate(251.08 19)" fill="#bfbfbf"/>
    </g>
    <g id="グループ_4" data-name="グループ 4">
      <path id="パス_4" data-name="パス 4" d="M193.75,37.52a5.584,5.584,0,0,0-.82-2.75,17.931,17.931,0,0,0-3.08-3.84c-2.68-2.17-4.56-1.43-5.9-.04-1.55,1.1-3.19,5.8-2.47,11.28,1.29,4,3.14,4.48,6.48,3.6a9.662,9.662,0,0,0,4.43-3.1A5.039,5.039,0,0,0,193.58,40a18.372,18.372,0,0,0,.16-2.48Z" fill="#bfbfbf"/>
      <circle id="楕円形_10" data-name="楕円形 10" cx="3.24" cy="3.24" r="3.24" transform="translate(196.46 34.97)" fill="#bfbfbf"/>
      <circle id="楕円形_11" data-name="楕円形 11" cx="3.24" cy="3.24" r="3.24" transform="translate(193.94 25.49)" fill="#bfbfbf"/>
      <circle id="楕円形_12" data-name="楕円形 12" cx="3.24" cy="3.24" r="3.24" transform="translate(193.34 44.5)" fill="#bfbfbf"/>
    </g>
    <g id="グループ_5" data-name="グループ 5">
      <path id="パス_5" data-name="パス 5" d="M347.29,11.98a5.5,5.5,0,0,0-.78-2.76,17.75,17.75,0,0,0-3.02-3.88c-2.65-2.21-4.54-1.49-5.9-.13-1.57,1.08-3.28,5.75-2.63,11.24,1.24,4.02,3.07,4.53,6.43,3.7a9.592,9.592,0,0,0,4.47-3.04,5.071,5.071,0,0,0,1.23-2.66,17.09,17.09,0,0,0,.2-2.48Z" fill="#bfbfbf"/>
      <circle id="楕円形_13" data-name="楕円形 13" cx="3.24" cy="3.24" r="3.24" transform="translate(349.99 9.51)" fill="#bfbfbf"/>
      <circle id="楕円形_14" data-name="楕円形 14" cx="3.24" cy="3.24" r="3.24" transform="translate(347.61 0)" fill="#bfbfbf"/>
      <circle id="楕円形_15" data-name="楕円形 15" cx="3.24" cy="3.24" r="3.24" transform="translate(346.74 19)" fill="#bfbfbf"/>
    </g>
    <g id="グループ_6" data-name="グループ 6">
      <path id="パス_6" data-name="パス 6" d="M289.4,37.52a5.584,5.584,0,0,0-.82-2.75,17.932,17.932,0,0,0-3.08-3.84c-2.68-2.17-4.56-1.43-5.9-.04-1.55,1.1-3.19,5.8-2.47,11.28,1.29,4,3.14,4.48,6.48,3.6a9.662,9.662,0,0,0,4.43-3.1A5.039,5.039,0,0,0,289.23,40a18.372,18.372,0,0,0,.16-2.48Z" fill="#bfbfbf"/>
      <circle id="楕円形_16" data-name="楕円形 16" cx="3.24" cy="3.24" r="3.24" transform="translate(292.11 34.97)" fill="#bfbfbf"/>
      <circle id="楕円形_17" data-name="楕円形 17" cx="3.24" cy="3.24" r="3.24" transform="translate(289.6 25.49)" fill="#bfbfbf"/>
      <circle id="楕円形_18" data-name="楕円形 18" cx="3.24" cy="3.24" r="3.24" transform="translate(289 44.5)" fill="#bfbfbf"/>
    </g>
    <g id="グループ_7" data-name="グループ 7">
      <path id="パス_7" data-name="パス 7" d="M440.38,11.98a5.5,5.5,0,0,0-.78-2.76,17.75,17.75,0,0,0-3.02-3.88c-2.65-2.21-4.54-1.49-5.9-.13-1.57,1.08-3.28,5.75-2.63,11.24,1.24,4.02,3.07,4.53,6.43,3.7a9.592,9.592,0,0,0,4.47-3.04,5.071,5.071,0,0,0,1.23-2.66,17.09,17.09,0,0,0,.2-2.48Z" fill="#bfbfbf"/>
      <circle id="楕円形_19" data-name="楕円形 19" cx="3.24" cy="3.24" r="3.24" transform="translate(443.08 9.51)" fill="#bfbfbf"/>
      <circle id="楕円形_20" data-name="楕円形 20" cx="3.24" cy="3.24" r="3.24" transform="translate(440.7 0)" fill="#bfbfbf"/>
      <circle id="楕円形_21" data-name="楕円形 21" cx="3.24" cy="3.24" r="3.24" transform="translate(439.83 19)" fill="#bfbfbf"/>
    </g>
    <g id="グループ_8" data-name="グループ 8">
      <path id="パス_8" data-name="パス 8" d="M382.49,37.52a5.584,5.584,0,0,0-.82-2.75,17.932,17.932,0,0,0-3.08-3.84c-2.68-2.17-4.56-1.43-5.9-.04-1.55,1.1-3.19,5.8-2.47,11.28,1.29,4,3.14,4.48,6.48,3.6a9.662,9.662,0,0,0,4.43-3.1A5.039,5.039,0,0,0,382.32,40a18.372,18.372,0,0,0,.16-2.48Z" fill="#bfbfbf"/>
      <circle id="楕円形_22" data-name="楕円形 22" cx="3.24" cy="3.24" r="3.24" transform="translate(385.2 34.97)" fill="#bfbfbf"/>
      <circle id="楕円形_23" data-name="楕円形 23" cx="3.24" cy="3.24" r="3.24" transform="translate(382.69 25.49)" fill="#bfbfbf"/>
      <circle id="楕円形_24" data-name="楕円形 24" cx="3.24" cy="3.24" r="3.24" transform="translate(382.09 44.5)" fill="#bfbfbf"/>
    </g>
    <g id="グループ_9" data-name="グループ 9">
      <path id="パス_9" data-name="パス 9" d="M536.04,11.98a5.5,5.5,0,0,0-.78-2.76,17.748,17.748,0,0,0-3.02-3.88c-2.65-2.21-4.54-1.49-5.9-.13-1.57,1.08-3.28,5.75-2.63,11.24,1.24,4.02,3.07,4.53,6.43,3.7a9.591,9.591,0,0,0,4.47-3.04,5.07,5.07,0,0,0,1.23-2.66,17.09,17.09,0,0,0,.2-2.48Z" fill="#bfbfbf"/>
      <circle id="楕円形_25" data-name="楕円形 25" cx="3.24" cy="3.24" r="3.24" transform="translate(538.74 9.51)" fill="#bfbfbf"/>
      <circle id="楕円形_26" data-name="楕円形 26" cx="3.24" cy="3.24" r="3.24" transform="translate(536.36 0)" fill="#bfbfbf"/>
      <circle id="楕円形_27" data-name="楕円形 27" cx="3.24" cy="3.24" r="3.24" transform="translate(535.48 19)" fill="#bfbfbf"/>
    </g>
    <g id="グループ_10" data-name="グループ 10">
      <path id="パス_10" data-name="パス 10" d="M478.15,37.52a5.584,5.584,0,0,0-.82-2.75,17.932,17.932,0,0,0-3.08-3.84c-2.68-2.17-4.56-1.43-5.9-.04-1.55,1.1-3.19,5.8-2.47,11.28,1.29,4,3.14,4.48,6.48,3.6a9.662,9.662,0,0,0,4.43-3.1A5.039,5.039,0,0,0,477.98,40a18.372,18.372,0,0,0,.16-2.48Z" fill="#bfbfbf"/>
      <circle id="楕円形_28" data-name="楕円形 28" cx="3.24" cy="3.24" r="3.24" transform="translate(480.86 34.97)" fill="#bfbfbf"/>
      <circle id="楕円形_29" data-name="楕円形 29" cx="3.24" cy="3.24" r="3.24" transform="translate(478.34 25.49)" fill="#bfbfbf"/>
      <circle id="楕円形_30" data-name="楕円形 30" cx="3.24" cy="3.24" r="3.24" transform="translate(477.75 44.5)" fill="#bfbfbf"/>
    </g>
    <g id="グループ_11" data-name="グループ 11">
      <path id="パス_11" data-name="パス 11" d="M637.46,11.98a5.5,5.5,0,0,0-.78-2.76,17.748,17.748,0,0,0-3.02-3.88c-2.65-2.21-4.54-1.49-5.9-.13-1.57,1.08-3.28,5.75-2.63,11.24,1.24,4.02,3.07,4.53,6.43,3.7a9.591,9.591,0,0,0,4.47-3.04,5.07,5.07,0,0,0,1.23-2.66,17.09,17.09,0,0,0,.2-2.48Z" fill="#bfbfbf"/>
      <circle id="楕円形_31" data-name="楕円形 31" cx="3.24" cy="3.24" r="3.24" transform="translate(640.16 9.51)" fill="#bfbfbf"/>
      <circle id="楕円形_32" data-name="楕円形 32" cx="3.24" cy="3.24" r="3.24" transform="translate(637.78 0)" fill="#bfbfbf"/>
      <circle id="楕円形_33" data-name="楕円形 33" cx="3.24" cy="3.24" r="3.24" transform="translate(636.91 19)" fill="#bfbfbf"/>
    </g>
    <g id="グループ_12" data-name="グループ 12">
      <path id="パス_12" data-name="パス 12" d="M579.58,37.52a5.584,5.584,0,0,0-.82-2.75,17.93,17.93,0,0,0-3.08-3.84c-2.68-2.17-4.56-1.43-5.9-.04-1.55,1.1-3.19,5.8-2.47,11.28,1.29,4,3.14,4.48,6.48,3.6a9.662,9.662,0,0,0,4.43-3.1A5.038,5.038,0,0,0,579.41,40a18.371,18.371,0,0,0,.16-2.48Z" fill="#bfbfbf"/>
      <circle id="楕円形_34" data-name="楕円形 34" cx="3.24" cy="3.24" r="3.24" transform="translate(582.29 34.97)" fill="#bfbfbf"/>
      <circle id="楕円形_35" data-name="楕円形 35" cx="3.24" cy="3.24" r="3.24" transform="translate(579.77 25.49)" fill="#bfbfbf"/>
      <circle id="楕円形_36" data-name="楕円形 36" cx="3.24" cy="3.24" r="3.24" transform="translate(579.17 44.5)" fill="#bfbfbf"/>
    </g>
    <g id="グループ_13" data-name="グループ 13">
      <path id="パス_13" data-name="パス 13" d="M70.33,11.98a5.5,5.5,0,0,0-.78-2.76,17.75,17.75,0,0,0-3.02-3.88c-2.65-2.21-4.54-1.49-5.9-.13C59.06,6.29,57.35,10.96,58,16.45c1.24,4.02,3.07,4.53,6.43,3.7a9.592,9.592,0,0,0,4.47-3.04,5.071,5.071,0,0,0,1.23-2.66,17.091,17.091,0,0,0,.2-2.48Z" fill="#bfbfbf"/>
      <circle id="楕円形_37" data-name="楕円形 37" cx="3.24" cy="3.24" r="3.24" transform="translate(73.03 9.51)" fill="#bfbfbf"/>
      <circle id="楕円形_38" data-name="楕円形 38" cx="3.24" cy="3.24" r="3.24" transform="translate(70.65 0)" fill="#bfbfbf"/>
      <circle id="楕円形_39" data-name="楕円形 39" cx="3.24" cy="3.24" r="3.24" transform="translate(69.78 19)" fill="#bfbfbf"/>
    </g>
    <g id="グループ_14" data-name="グループ 14">
      <path id="パス_14" data-name="パス 14" d="M12.44,37.52a5.584,5.584,0,0,0-.82-2.75,17.931,17.931,0,0,0-3.08-3.84c-2.68-2.17-4.56-1.43-5.9-.04C1.09,31.99-.55,36.69.17,42.17c1.29,4,3.14,4.48,6.48,3.6a9.662,9.662,0,0,0,4.43-3.1A5.039,5.039,0,0,0,12.27,40a18.371,18.371,0,0,0,.16-2.48Z" fill="#bfbfbf"/>
      <circle id="楕円形_40" data-name="楕円形 40" cx="3.24" cy="3.24" r="3.24" transform="translate(15.15 34.97)" fill="#bfbfbf"/>
      <circle id="楕円形_41" data-name="楕円形 41" cx="3.24" cy="3.24" r="3.24" transform="translate(12.63 25.49)" fill="#bfbfbf"/>
      <circle id="楕円形_42" data-name="楕円形 42" cx="3.24" cy="3.24" r="3.24" transform="translate(12.04 44.5)" fill="#bfbfbf"/>
    </g>
  </g>
</svg>
